<?xml version="1.0" encoding="UTF-8"?>
<!-- Generator: Adobe Illustrator 22.1.0, SVG Export Plug-In . SVG Version: 6.00 Build 0)  -->
<svg version="1.1" id="Layer_1" xmlns="http://www.w3.org/2000/svg" xmlns:xlink="http://www.w3.org/1999/xlink" x="0px" y="0px" viewBox="0 0 389.4 100.3" style="enable-background:new 0 0 389.4 100.3;" xml:space="preserve">
<style type="text/css">
	.st0{fill:#000000;}
	.st1{fill:#FFFFFF;}
</style>
<circle class="st0" cx="339.2" cy="50.2" r="32.2"/>
<circle class="st0" cx="50.2" cy="50.2" r="32.2"/>
<path class="st1" d="M50.2,0C22.5,0,0,22.6,0,50.2c0,27.6,22.5,50.1,50.2,50.1c27.6,0,50.2-22.4,50.2-50.1C100.4,22.5,77.9,0,50.2,0  z M50.2,82.4C32.4,82.4,18,68,18,50.2C18,32.4,32.4,18,50.2,18c17.7,0,32.2,14.4,32.2,32.2C82.4,68,68,82.4,50.2,82.4z"/>
<path class="st1" d="M339.2,0C311.6,0,289,22.4,289,50.1s22.5,50.2,50.2,50.2s50.2-22.4,50.2-50.1C389.4,22.5,366.8,0,339.2,0z   M339.2,82.4C321.4,82.4,307,68,307,50.2c0-17.8,14.5-32.2,32.2-32.2c17.8,0,32.2,14.4,32.2,32.2C371.4,68,357,82.4,339.2,82.4z"/>
</svg>